<svg width="6" height="6" viewBox="0 0 6 6" fill="none" xmlns="http://www.w3.org/2000/svg">
<path d="M5.87435 2.70559L3.7314 0.622388C3.64836 0.540362 3.53853 0.5 3.42871 0.5C3.31888 0.5 3.20932 0.540688 3.12575 0.622063C2.95833 0.784812 2.95833 1.04847 3.12575 1.21122L4.53768 2.5832H0.428569C0.191907 2.5832 0 2.76938 0 2.99984C0 3.23029 0.191907 3.41648 0.428569 3.41648H4.53768L3.12601 4.78878C2.9586 4.95153 2.9586 5.21519 3.12601 5.37794C3.29343 5.54069 3.56465 5.54069 3.73207 5.37794L5.87502 3.29474C6.04177 3.13134 6.04177 2.86834 5.87435 2.70559Z" fill="#000"/>
</svg>
