<svg width="18" height="15" viewBox="0 0 18 15" fill="none" xmlns="http://www.w3.org/2000/svg">
<path d="M0 1.25C0 0.559766 0.575759 0 1.28571 0H16.7143C17.4254 0 18 0.559766 18 1.25C18 1.94141 17.4254 2.5 16.7143 2.5H1.28571C0.575759 2.5 0 1.94141 0 1.25ZM0 7.5C0 6.80859 0.575759 6.25 1.28571 6.25H16.7143C17.4254 6.25 18 6.80859 18 7.5C18 8.19141 17.4254 8.75 16.7143 8.75H1.28571C0.575759 8.75 0 8.19141 0 7.5ZM16.7143 15H1.28571C0.575759 15 0 14.4414 0 13.75C0 13.0586 0.575759 12.5 1.28571 12.5H16.7143C17.4254 12.5 18 13.0586 18 13.75C18 14.4414 17.4254 15 16.7143 15Z" fill="#000"/>
</svg>
