<svg width="11" height="14" viewBox="0 0 11 14" fill="none" xmlns="http://www.w3.org/2000/svg">
<path d="M6.89478 6.12489H10.0913C10.4726 6.12489 10.8166 6.35184 10.9255 6.69089C11.0832 7.03268 10.9829 7.41822 10.6962 7.65884L3.35712 13.7837C3.03316 14.0517 2.55928 14.0736 2.21296 13.833C1.86636 13.5923 1.74022 13.1548 1.90908 12.7802L4.11396 7.87486H0.891642C0.535295 7.87486 0.193082 7.64791 0.0586561 7.30885C-0.0757695 6.96706 0.0256991 6.58152 0.313403 6.3409L7.65163 0.216495C7.97558 -0.0525081 8.4486 -0.0729882 8.79549 0.167168C9.14238 0.407406 9.26852 0.844078 9.09937 1.21977L6.89478 6.12489Z" fill="#000"/>
</svg>
