<svg width="10" height="12" viewBox="0 0 10 12" fill="none" xmlns="http://www.w3.org/2000/svg">
<path d="M3.57143 0.75V1.5H6.42857V0.75C6.42857 0.335859 6.74777 0 7.14286 0C7.53795 0 7.85714 0.335859 7.85714 0.75V1.5H8.92857C9.52009 1.5 10 2.00367 10 2.625V3.75H0V2.625C0 2.00367 0.479688 1.5 1.07143 1.5H2.14286V0.75C2.14286 0.335859 2.46205 0 2.85714 0C3.25223 0 3.57143 0.335859 3.57143 0.75ZM0 4.5H10V10.875C10 11.4961 9.52009 12 8.92857 12H1.07143C0.479688 12 0 11.4961 0 10.875V4.5ZM1.42857 7.125C1.42857 7.33125 1.58839 7.5 1.78571 7.5H2.5C2.69643 7.5 2.85714 7.33125 2.85714 7.125V6.375C2.85714 6.16875 2.69643 6 2.5 6H1.78571C1.58839 6 1.42857 6.16875 1.42857 6.375V7.125ZM4.28571 7.125C4.28571 7.33125 4.44643 7.5 4.64286 7.5H5.35714C5.55357 7.5 5.71429 7.33125 5.71429 7.125V6.375C5.71429 6.16875 5.55357 6 5.35714 6H4.64286C4.44643 6 4.28571 6.16875 4.28571 6.375V7.125ZM7.5 6C7.30357 6 7.14286 6.16875 7.14286 6.375V7.125C7.14286 7.33125 7.30357 7.5 7.5 7.5H8.21429C8.41071 7.5 8.57143 7.33125 8.57143 7.125V6.375C8.57143 6.16875 8.41071 6 8.21429 6H7.5ZM1.42857 10.125C1.42857 10.3313 1.58839 10.5 1.78571 10.5H2.5C2.69643 10.5 2.85714 10.3313 2.85714 10.125V9.375C2.85714 9.16875 2.69643 9 2.5 9H1.78571C1.58839 9 1.42857 9.16875 1.42857 9.375V10.125ZM4.64286 9C4.44643 9 4.28571 9.16875 4.28571 9.375V10.125C4.28571 10.3313 4.44643 10.5 4.64286 10.5H5.35714C5.55357 10.5 5.71429 10.3313 5.71429 10.125V9.375C5.71429 9.16875 5.55357 9 5.35714 9H4.64286ZM7.14286 10.125C7.14286 10.3313 7.30357 10.5 7.5 10.5H8.21429C8.41071 10.5 8.57143 10.3313 8.57143 10.125V9.375C8.57143 9.16875 8.41071 9 8.21429 9H7.5C7.30357 9 7.14286 9.16875 7.14286 9.375V10.125Z" fill="#000"/>
</svg>
