<svg width="22" height="20" viewBox="0 0 22 20" fill="none" xmlns="http://www.w3.org/2000/svg">
<path d="M15.2778 0C16.2899 0 17.1111 0.839453 17.1111 1.875V7.5H20.1667C21.1788 7.5 22 8.33984 22 9.375V18.125C22 19.1602 21.1788 20 20.1667 20H12.2222V16.25C12.2222 15.5586 11.676 15 11 15C10.324 15 9.77778 15.5586 9.77778 16.25V20H1.83333C0.820799 20 0 19.1602 0 18.125V5.625C0 4.58984 0.820799 3.75 1.83333 3.75H4.88889V1.875C4.88889 0.839453 5.71007 0 6.72222 0H15.2778ZM14.0556 12.5C14.3917 12.5 14.6667 12.2188 14.6667 11.875V10.625C14.6667 10.2812 14.3917 10 14.0556 10H12.8333C12.4972 10 12.2222 10.2812 12.2222 10.625V11.875C12.2222 12.2188 12.4972 12.5 12.8333 12.5H14.0556ZM19.5556 14.375C19.5556 14.0312 19.2806 13.75 18.9444 13.75H17.7222C17.3861 13.75 17.1111 14.0312 17.1111 14.375V15.625C17.1111 15.9688 17.3861 16.25 17.7222 16.25H18.9444C19.2806 16.25 19.5556 15.9688 19.5556 15.625V14.375ZM4.27778 12.5C4.61389 12.5 4.88889 12.2188 4.88889 11.875V10.625C4.88889 10.2812 4.61389 10 4.27778 10H3.05556C2.71792 10 2.44444 10.2812 2.44444 10.625V11.875C2.44444 12.2188 2.71792 12.5 3.05556 12.5H4.27778ZM4.88889 14.375C4.88889 14.0312 4.61389 13.75 4.27778 13.75H3.05556C2.71792 13.75 2.44444 14.0312 2.44444 14.375V15.625C2.44444 15.9688 2.71792 16.25 3.05556 16.25H4.27778C4.61389 16.25 4.88889 15.9688 4.88889 15.625V14.375ZM9.16667 12.5C9.50278 12.5 9.77778 12.2188 9.77778 11.875V10.625C9.77778 10.2812 9.50278 10 9.16667 10H7.94444C7.60833 10 7.33333 10.2812 7.33333 10.625V11.875C7.33333 12.2188 7.60833 12.5 7.94444 12.5H9.16667ZM14.6667 3.125C14.6667 2.77969 14.3917 2.5 14.0556 2.5H12.8333C12.4972 2.5 12.2222 2.77969 12.2222 3.125V4.375C12.2222 4.71875 12.4972 5 12.8333 5H14.0556C14.3917 5 14.6667 4.71875 14.6667 4.375V3.125ZM7.94444 2.5C7.60833 2.5 7.33333 2.77969 7.33333 3.125V4.375C7.33333 4.71875 7.60833 5 7.94444 5H9.16667C9.50278 5 9.77778 4.71875 9.77778 4.375V3.125C9.77778 2.77969 9.50278 2.5 9.16667 2.5H7.94444ZM14.6667 6.875C14.6667 6.53125 14.3917 6.25 14.0556 6.25H12.8333C12.4972 6.25 12.2222 6.53125 12.2222 6.875V8.125C12.2222 8.46875 12.4972 8.75 12.8333 8.75H14.0556C14.3917 8.75 14.6667 8.46875 14.6667 8.125V6.875ZM18.9444 12.5C19.2806 12.5 19.5556 12.2188 19.5556 11.875V10.625C19.5556 10.2812 19.2806 10 18.9444 10H17.7222C17.3861 10 17.1111 10.2812 17.1111 10.625V11.875C17.1111 12.2188 17.3861 12.5 17.7222 12.5H18.9444ZM4.88889 6.875C4.88889 6.53125 4.61389 6.25 4.27778 6.25H3.05556C2.71792 6.25 2.44444 6.53125 2.44444 6.875V8.125C2.44444 8.46875 2.71792 8.75 3.05556 8.75H4.27778C4.61389 8.75 4.88889 8.46875 4.88889 8.125V6.875ZM9.16667 8.75C9.50278 8.75 9.77778 8.46875 9.77778 8.125V6.875C9.77778 6.53125 9.50278 6.25 9.16667 6.25H7.94444C7.60833 6.25 7.33333 6.53125 7.33333 6.875V8.125C7.33333 8.46875 7.60833 8.75 7.94444 8.75H9.16667Z" fill="#000"/>
</svg>
