<svg width="15" height="15" viewBox="0 0 15 15" fill="none" xmlns="http://www.w3.org/2000/svg">
<path d="M6.5625 0C5.52832 0 4.6875 0.84082 4.6875 1.875V8.4375C4.6875 9.47168 5.52832 10.3125 6.5625 10.3125H13.125C14.1592 10.3125 15 9.47168 15 8.4375V1.875C15 0.84082 14.1592 0 13.125 0H6.5625ZM1.875 4.6875C0.84082 4.6875 0 5.52832 0 6.5625V13.125C0 14.1592 0.84082 15 1.875 15H8.4375C9.47168 15 10.3125 14.1592 10.3125 13.125V11.25H8.4375V13.125H1.875V6.5625H3.75V4.6875H1.875Z" fill="#000"/>
</svg>
