<svg width="22" height="20" viewBox="0 0 22 20" fill="none" xmlns="http://www.w3.org/2000/svg">
<path d="M14.5776 8.21881C14.1262 8.66523 13.4341 8.67863 12.9311 8.28577L8.27973 4.66525L2.23503 9.64737C1.64179 10.1786 0.775986 10.0804 0.301515 9.42416C-0.173127 8.84827 -0.0769174 7.95095 0.516332 7.45542L7.39415 1.74161C7.88423 1.33491 8.57635 1.32375 9.07932 1.71437L13.7307 5.33489L19.775 0.313042C20.3683 -0.179813 21.2323 -0.0798134 21.6708 0.536255C22.1824 1.15232 22.0878 2.05143 21.4559 2.54428L14.5776 8.21881ZM6.87828 10C6.87828 9.20987 7.49303 8.57148 8.25393 8.57148C9.01484 8.57148 9.62958 9.20987 9.62958 10V18.5714C9.62958 19.3616 9.01484 20 8.25393 20C7.49303 20 6.87828 19.3616 6.87828 18.5714V10ZM1.37568 14.2857C1.37568 13.4956 1.99172 12.8572 2.75133 12.8572C3.51095 12.8572 4.12698 13.4956 4.12698 14.2857V18.5714C4.12698 19.3616 3.51095 20 2.75133 20C1.99172 20 1.37568 19.3616 1.37568 18.5714V14.2857ZM15.1322 12.8572V18.5714C15.1322 19.3616 14.5174 20 13.7565 20C12.9956 20 12.3809 19.3616 12.3809 18.5714V12.8572C12.3809 12.067 12.9956 11.4286 13.7565 11.4286C14.5174 11.4286 15.1322 12.067 15.1322 12.8572ZM17.8835 10C17.8835 9.20987 18.4982 8.57148 19.2591 8.57148C20.02 8.57148 20.6348 9.20987 20.6348 10V18.5714C20.6348 19.3616 20.02 20 19.2591 20C18.4982 20 17.8835 19.3616 17.8835 18.5714V10Z" fill="#000"/>
</svg>
