<svg width="11" height="12" viewBox="0 0 11 12" fill="none" xmlns="http://www.w3.org/2000/svg">
<path d="M10.2375 0.856554C9.7621 0.381149 8.99364 0.381149 8.51823 0.856554L7.86482 1.5078L9.99004 3.63301L10.6434 2.9796C11.1189 2.50419 11.1189 1.73573 10.6434 1.26032L10.2375 0.856554ZM3.74246 5.63232C3.61004 5.76474 3.50802 5.92755 3.44941 6.10773L2.80685 8.0354C2.74389 8.22209 2.79382 8.42831 2.93275 8.56942C3.07169 8.71052 3.27791 8.75828 3.46677 8.69532L5.39444 8.05277C5.57245 7.99198 5.73526 7.89213 5.86985 7.75971L9.5016 4.12578L7.37422 1.9984L3.74246 5.63232ZM2.08397 1.7748C0.933445 1.7748 0 2.70825 0 3.85877V9.41603C0 10.5666 0.933445 11.5 2.08397 11.5H7.64123C8.79175 11.5 9.7252 10.5666 9.7252 9.41603V7.33206C9.7252 6.94783 9.41477 6.6374 9.03054 6.6374C8.64631 6.6374 8.33588 6.94783 8.33588 7.33206V9.41603C8.33588 9.80026 8.02546 10.1107 7.64123 10.1107H2.08397C1.69974 10.1107 1.38931 9.80026 1.38931 9.41603V3.85877C1.38931 3.47454 1.69974 3.16412 2.08397 3.16412H4.16794C4.55217 3.16412 4.8626 2.85369 4.8626 2.46946C4.8626 2.08523 4.55217 1.7748 4.16794 1.7748H2.08397Z" fill="#000"/>
</svg>
