<svg width="15" height="13" viewBox="0 0 15 13" fill="none" xmlns="http://www.w3.org/2000/svg">
<path d="M0.909491 0.129632C0.665745 -0.0785665 0.311845 -0.0303254 0.119661 0.233731C-0.0725232 0.497788 -0.0279928 0.881178 0.215753 1.08938L14.0905 12.8704C14.3343 13.0786 14.6882 13.0303 14.8803 12.7663C15.0725 12.5022 15.028 12.1188 14.7842 11.9106L12.3187 9.81848C13.2468 8.78765 13.8749 7.6324 14.1913 6.8123C14.2686 6.61172 14.2686 6.38828 14.1913 6.1877C13.8421 5.28128 13.1085 3.96099 12.0116 2.85906C10.9101 1.74698 9.39372 0.812625 7.5 0.812625C5.90159 0.812625 4.57036 1.48038 3.5321 2.35634L0.909491 0.129632ZM5.22895 3.79596C5.82659 3.20437 6.6258 2.84383 7.5 2.84383C9.36325 2.84383 10.8749 4.48149 10.8749 6.5C10.8749 7.13221 10.7273 7.72634 10.4671 8.2443L9.56246 7.47752C9.68434 7.17791 9.74996 6.84784 9.74996 6.5C9.74996 5.15433 8.74217 4.06255 7.5 4.06255C7.43438 4.06255 7.36875 4.06509 7.30313 4.07271C7.42735 4.30884 7.5 4.58305 7.5 4.87504C7.5 5.13401 7.44375 5.37776 7.34531 5.59357L5.22895 3.79596ZM10.4578 11.3622L8.74217 9.89973C8.3578 10.0648 7.93827 10.1562 7.5 10.1562C5.63675 10.1562 4.12506 8.51851 4.12506 6.5C4.12506 6.32481 4.13678 6.1547 4.15787 5.98712L1.94775 4.10064C1.41339 4.85472 1.03136 5.60627 0.808711 6.1877C0.731369 6.38828 0.731369 6.61172 0.808711 6.8123C1.15792 7.71872 1.8915 9.03901 2.98836 10.1409C4.0899 11.253 5.60628 12.1874 7.5 12.1874C8.62029 12.1874 9.60699 11.8598 10.4578 11.3622Z" fill="#000"/>
</svg>
