<svg width="15" height="11" viewBox="0 0 15 11" fill="none" xmlns="http://www.w3.org/2000/svg">
<path d="M7.4987 0C5.39471 0 3.70996 0.903571 2.48351 1.97902C1.26486 3.04464 0.449831 4.32143 0.0644475 5.19799C-0.0214825 5.39196 -0.0214825 5.60804 0.0644475 5.80201C0.449831 6.67857 1.26486 7.95536 2.48351 9.02098C3.70996 10.0964 5.39471 11 7.4987 11C9.60268 11 11.2874 10.0964 12.5139 9.02098C13.7325 7.9529 14.5476 6.67857 14.9356 5.80201C15.0215 5.60804 15.0215 5.39196 14.9356 5.19799C14.5476 4.32143 13.7325 3.04464 12.5139 1.97902C11.2874 0.903571 9.60268 0 7.4987 0ZM11.2484 5.5C11.2484 7.45201 9.56883 9.03571 7.4987 9.03571C5.42857 9.03571 3.74902 7.45201 3.74902 5.5C3.74902 3.54799 5.42857 1.96429 7.4987 1.96429C9.56883 1.96429 11.2484 3.54799 11.2484 5.5ZM7.4987 3.92857C7.4987 4.79531 6.75137 5.5 5.83218 5.5C5.53272 5.5 5.2515 5.42634 5.00933 5.29375C5.00412 5.3625 4.99892 5.42879 4.99892 5.5C4.99892 6.80134 6.11861 7.85714 7.4987 7.85714C8.87879 7.85714 9.99848 6.80134 9.99848 5.5C9.99848 4.19866 8.87879 3.14286 7.4987 3.14286C7.42579 3.14286 7.35288 3.14531 7.27997 3.15268C7.41798 3.38103 7.4987 3.64621 7.4987 3.92857Z" fill="#000"/>
</svg>
