<svg width="21" height="18" viewBox="0 0 21 18" fill="none" xmlns="http://www.w3.org/2000/svg">
<path d="M20.9936 8.98242C20.9936 9.61523 20.4467 10.1109 19.8269 10.1109H18.6601L18.6857 15.7395C18.6857 15.8379 18.6784 15.9293 18.6674 16.0242V16.5938C18.6674 17.3707 18.0148 18 17.209 18H16.6257C16.5856 18 16.5455 17.9684 16.5054 17.9965C16.4543 17.9684 16.4033 18 16.3522 18H14.2923C13.4865 18 12.8339 17.3707 12.8339 16.5938V13.5C12.8339 12.8777 12.3125 12.375 11.6672 12.375H9.33372C8.68838 12.375 8.16701 12.8777 8.16701 13.5V16.5938C8.16701 17.3707 7.51437 18 6.70861 18H4.67051C4.61582 18 4.56113 17.9965 4.50644 17.993C4.46269 17.9965 4.41893 18 4.37518 18H3.79182C2.98643 18 2.33343 17.3707 2.33343 16.5938V12.6562C2.33343 12.6246 2.33452 12.5895 2.33671 12.5578V10.1109H1.16854C0.511167 10.1109 0 9.61523 0 8.98242C0 8.66602 0.109525 8.38477 0.364963 8.13867L9.7129 0.281812C9.96812 0.0352266 10.2598 0 10.515 0C10.7702 0 11.0619 0.0704531 11.2843 0.246586L20.5925 8.13867C20.8842 8.38477 21.0337 8.66602 20.9936 8.98242Z" fill="#000"/>
</svg>
