<svg width="13" height="12" viewBox="0 0 13 12" fill="none" xmlns="http://www.w3.org/2000/svg">
<path d="M4.25012 9.92857H2.75007C2.33592 9.92857 2.00005 9.57672 2.00005 9.14286V2.85714C2.00005 2.42328 2.33592 2.07143 2.75007 2.07143H4.25012C4.66427 2.07143 5.00014 1.71958 5.00014 1.28571C5.00014 0.851853 4.66498 0.5 4.25012 0.5H2.75007C1.50738 0.5 0.5 1.55531 0.5 2.85714V9.14286C0.5 10.4447 1.50738 11.5 2.75007 11.5H4.25012C4.66427 11.5 5.00014 11.1481 5.00014 10.7143C5.00014 10.2804 4.66498 9.92857 4.25012 9.92857ZM12.2801 5.44509L9.27997 2.30223C8.98675 1.99507 8.51213 1.99556 8.21939 2.30223C7.92641 2.60915 7.92641 3.10636 8.21939 3.41328L9.94092 5.21429H5.00014C4.58529 5.21429 4.25012 5.5654 4.25012 6C4.25012 6.4346 4.58552 6.78571 5.00014 6.78571H9.94092L8.22103 8.58746C7.92805 8.89437 7.92805 9.39158 8.22103 9.6985C8.514 10.0054 8.98863 10.0054 9.28161 9.6985L12.2817 6.55565C12.573 6.24799 12.573 5.75201 12.2801 5.44509Z" fill="#000"/>
</svg>
