<svg width="212" height="188" viewBox="0 0 212 188" fill="none" xmlns="http://www.w3.org/2000/svg">
<path d="M207.415 173.055H190.729V173.181H207.415V173.055Z" fill="#EBEBEB"/>
<path d="M147.623 174.426H143.245V174.551H147.623V174.426Z" fill="#EBEBEB"/>
<path d="M190.225 168.38H180.557V168.506H190.225V168.38Z" fill="#EBEBEB"/>
<path d="M28.9392 169.226H7.17944V169.352H28.9392V169.226Z" fill="#EBEBEB"/>
<path d="M36.6174 169.226H33.4282V169.352H36.6174V169.226Z" fill="#EBEBEB"/>
<path d="M94.1829 171.352H46.9856V171.478H94.1829V171.352Z" fill="#EBEBEB"/>
<path d="M100.153 142.479H2.87174C2.10965 142.477 1.37922 142.174 0.840808 141.634C0.302396 141.095 -1.16871e-06 140.364 0 139.602V2.85159C0.0066342 2.09386 0.311959 1.36936 0.849654 0.835434C1.38735 0.301512 2.11399 0.00129802 2.87174 0H100.153C100.916 0 101.648 0.303088 102.187 0.842589C102.727 1.38209 103.03 2.11381 103.03 2.87678V139.602C103.03 140.365 102.727 141.097 102.187 141.636C101.648 142.176 100.916 142.479 100.153 142.479V142.479ZM2.87174 0.100763C2.14305 0.102098 1.44466 0.392504 0.92987 0.908239C0.41508 1.42397 0.125952 2.1229 0.125954 2.85159V139.602C0.125952 140.331 0.41508 141.029 0.92987 141.545C1.44466 142.061 2.14305 142.351 2.87174 142.353H100.153C100.882 142.351 101.581 142.061 102.097 141.546C102.612 141.03 102.903 140.331 102.904 139.602V2.85159C102.903 2.12243 102.612 1.42352 102.097 0.907932C101.581 0.39234 100.882 0.102095 100.153 0.100763H2.87174Z" fill="#EBEBEB"/>
<path d="M209.133 142.479H111.847C111.084 142.477 110.353 142.174 109.814 141.635C109.275 141.095 108.971 140.364 108.97 139.602V2.85159C108.978 2.09341 109.284 1.3689 109.823 0.835119C110.361 0.301336 111.089 0.00128386 111.847 0H209.133C209.89 0.0026221 210.615 0.303422 211.152 0.837202C211.689 1.37098 211.993 2.09473 212 2.85159V139.602C212 140.363 211.698 141.093 211.161 141.633C210.624 142.172 209.894 142.476 209.133 142.479V142.479ZM111.847 0.100763C111.118 0.102095 110.419 0.39234 109.903 0.907932C109.387 1.42352 109.097 2.12243 109.096 2.85159V139.602C109.097 140.331 109.387 141.03 109.903 141.546C110.419 142.061 111.118 142.351 111.847 142.353H209.133C209.862 142.351 210.561 142.061 211.077 141.546C211.593 141.03 211.883 140.331 211.884 139.602V2.85159C211.883 2.12243 211.593 1.42352 211.077 0.907932C210.561 0.39234 209.862 0.102095 209.133 0.100763H111.847Z" fill="#EBEBEB"/>
<path d="M126.699 59.9841L196.115 59.9841V14.525L126.699 14.525V59.9841Z" fill="#E6E6E6"/>
<path d="M124.578 59.9841L195.122 59.9841V14.525L124.578 14.525V59.9841Z" fill="#F0F0F0"/>
<path d="M126.699 68.9016L196.115 68.9016V59.9791L126.699 59.9791V68.9016Z" fill="#E6E6E6"/>
<path d="M121.057 68.9016L191.601 68.9016V59.9791L121.057 59.9791V68.9016Z" fill="#F0F0F0"/>
<path d="M192.16 57.0217V17.4924L127.546 17.4924V57.0217L192.16 57.0217Z" fill="#FAFAFA"/>
<path d="M177.589 57.0167L169.337 17.4924H156.459L164.712 57.0167H177.589Z" fill="white"/>
<path d="M190.79 54.0694C190.818 54.0694 190.846 54.0637 190.872 54.0528C190.898 54.0418 190.921 54.0258 190.941 54.0056C190.961 53.9854 190.976 53.9615 190.987 53.9352C190.997 53.909 191.002 53.8809 191.001 53.8527V19.4221C191.001 19.3659 190.979 19.3121 190.939 19.2724C190.899 19.2327 190.846 19.2105 190.79 19.2105C190.762 19.2098 190.734 19.2148 190.708 19.2251C190.682 19.2355 190.658 19.2511 190.638 19.2709C190.619 19.2907 190.603 19.3143 190.593 19.3403C190.582 19.3663 190.577 19.3941 190.578 19.4221V53.8527C190.577 53.8809 190.582 53.909 190.593 53.9352C190.603 53.9615 190.618 53.9854 190.638 54.0056C190.658 54.0258 190.681 54.0418 190.707 54.0528C190.733 54.0637 190.761 54.0694 190.79 54.0694V54.0694Z" fill="#F0F0F0"/>
<path d="M161.946 57.0167L153.693 17.4924H148.67L156.928 57.0167H161.946Z" fill="white"/>
<path d="M127.924 57.0217V17.4924H127.546V57.0217H127.924Z" fill="#E6E6E6"/>
<path opacity="0.6" d="M123.883 21.9613H193.299L193.571 18.6412H124.155L123.883 21.9613Z" fill="#EBEBEB"/>
<path opacity="0.6" d="M123.883 27.4024H193.299L193.571 24.0873H124.155L123.883 27.4024Z" fill="#EBEBEB"/>
<path opacity="0.6" d="M123.883 32.8437H193.299L193.571 29.5286H124.155L123.883 32.8437Z" fill="#EBEBEB"/>
<path opacity="0.6" d="M123.883 38.2899H193.299L193.571 34.9697H124.155L123.883 38.2899Z" fill="#EBEBEB"/>
<path opacity="0.6" d="M123.883 43.7311H193.299L193.571 40.4109H124.155L123.883 43.7311Z" fill="#EBEBEB"/>
<path opacity="0.6" d="M123.883 49.1723H193.299L193.571 45.8522H124.155L123.883 49.1723Z" fill="#EBEBEB"/>
<path d="M186.149 131.888H171.594V134.76H186.149V131.888Z" fill="#E6E6E6"/>
<path d="M144.141 164.949H146.827V98.9139H144.141V164.949Z" fill="#E6E6E6"/>
<path d="M134.831 134.76H171.589V131.889H134.831V134.76Z" fill="#F5F5F5"/>
<path d="M186.149 147.592H171.594V150.464H186.149V147.592Z" fill="#E6E6E6"/>
<path d="M134.831 150.459H171.589V147.587H134.831V150.459Z" fill="#F5F5F5"/>
<path d="M186.149 100.486H171.594V103.358H186.149V100.486Z" fill="#E6E6E6"/>
<path d="M134.831 103.352H171.589V100.481H134.831V103.352Z" fill="#F5F5F5"/>
<path d="M186.149 116.185H171.594V119.056H186.149V116.185Z" fill="#E6E6E6"/>
<path d="M134.831 119.056H171.589V116.185H134.831V119.056Z" fill="#F5F5F5"/>
<path d="M180.905 164.949H183.59V98.9139H180.905V164.949Z" fill="#E6E6E6"/>
<path d="M168.904 164.949H171.589V98.9139H168.904V164.949Z" fill="#F5F5F5"/>
<path d="M134.831 164.949H137.516V98.9139H134.831V164.949Z" fill="#F5F5F5"/>
<path d="M13.6886 164.949H41.1868L41.1868 111.6H13.6886L13.6886 164.949Z" fill="#E6E6E6"/>
<path d="M21.0294 164.949H13.6838V157.583H28.7277L21.0294 164.949Z" fill="#FAFAFA"/>
<path d="M88.6564 164.949H116.155V111.6H88.6564V164.949Z" fill="#E6E6E6"/>
<path d="M13.6885 162.41H95.0696V111.595H13.6885V162.41Z" fill="#FAFAFA"/>
<path d="M87.7242 164.949H95.0647V157.583H80.0259L87.7242 164.949Z" fill="#FAFAFA"/>
<path d="M19.3817 143.249H89.3716V130.533H19.3817V143.249Z" fill="#F0F0F0"/>
<path d="M19.3817 158.681H89.3716V145.965H19.3817V158.681Z" fill="#F0F0F0"/>
<path d="M76.0711 131.894H32.6877C32.0757 131.894 31.4888 131.65 31.056 131.218C30.6233 130.785 30.3802 130.198 30.3802 129.586V129.43H78.3735V129.586C78.3735 130.197 78.1311 130.783 77.6995 131.216C77.2678 131.649 76.6822 131.892 76.0711 131.894Z" fill="#FAFAFA"/>
<path d="M19.3817 127.813L89.3716 127.813V115.096L19.3817 115.096V127.813Z" fill="#F0F0F0"/>
<path d="M76.0711 116.457H32.6877C32.0757 116.457 31.4888 116.214 31.056 115.781C30.6233 115.348 30.3802 114.761 30.3802 114.149V113.993H78.3735V114.149C78.3735 114.76 78.1311 115.346 77.6995 115.779C77.2678 116.212 76.6822 116.455 76.0711 116.457Z" fill="#FAFAFA"/>
<path d="M76.0711 147.33H32.6877C32.0757 147.33 31.4888 147.087 31.056 146.655C30.6233 146.222 30.3802 145.635 30.3802 145.023V144.867H78.3735V145.023C78.3735 145.634 78.1311 146.22 77.6995 146.653C77.2678 147.085 76.6822 147.329 76.0711 147.33Z" fill="#FAFAFA"/>
<path d="M18.0667 59.9841L87.4822 59.9841V14.525L18.0667 14.525V59.9841Z" fill="#E6E6E6"/>
<path d="M15.9508 59.9841L86.4949 59.9841V14.525L15.9508 14.525V59.9841Z" fill="#F0F0F0"/>
<path d="M18.0667 68.9016L87.4822 68.9016V59.9791L18.0667 59.9791V68.9016Z" fill="#E6E6E6"/>
<path d="M12.4191 68.9016L82.9631 68.9016V59.9791L12.4191 59.9791V68.9016Z" fill="#F0F0F0"/>
<path d="M83.5273 57.0217V17.4924L18.9132 17.4924V57.0217L83.5273 57.0217Z" fill="#FAFAFA"/>
<path d="M68.9571 57.0167L60.7046 17.4924H47.8271L56.0796 57.0167H68.9571Z" fill="white"/>
<path d="M82.1518 54.0694C82.1801 54.0694 82.208 54.0637 82.234 54.0528C82.26 54.0418 82.2836 54.0258 82.3033 54.0056C82.323 53.9854 82.3385 53.9615 82.3488 53.9352C82.3591 53.909 82.3641 53.8809 82.3634 53.8527V19.4221C82.3641 19.3941 82.3591 19.3663 82.3487 19.3403C82.3384 19.3143 82.3228 19.2907 82.303 19.2709C82.2832 19.2511 82.2596 19.2355 82.2336 19.2251C82.2076 19.2148 82.1798 19.2098 82.1518 19.2105C82.0957 19.2105 82.0419 19.2327 82.0022 19.2724C81.9625 19.3121 81.9402 19.3659 81.9402 19.4221V53.8527C81.9396 53.8809 81.9445 53.909 81.9549 53.9352C81.9652 53.9615 81.9807 53.9854 82.0004 54.0056C82.0201 54.0258 82.0437 54.0418 82.0697 54.0528C82.0957 54.0637 82.1236 54.0694 82.1518 54.0694Z" fill="#F0F0F0"/>
<path d="M53.3138 57.0167L45.0614 17.4924H40.0383L48.2908 57.0167H53.3138Z" fill="white"/>
<path d="M19.291 57.0217L19.291 17.4924H18.9132L18.9132 57.0217H19.291Z" fill="#E6E6E6"/>
<path opacity="0.6" d="M15.2454 21.9613H84.6609L84.9329 18.6412H15.5174L15.2454 21.9613Z" fill="#EBEBEB"/>
<path opacity="0.6" d="M15.2454 23.8354H84.6609L84.9329 20.5153H15.5174L15.2454 23.8354Z" fill="#EBEBEB"/>
<path opacity="0.6" d="M15.2454 25.7046H84.6609L84.9329 22.3895H15.5174L15.2454 25.7046Z" fill="#EBEBEB"/>
<path opacity="0.6" d="M15.2454 27.5788H84.6609L84.9329 24.2587H15.5174L15.2454 27.5788Z" fill="#EBEBEB"/>
<path opacity="0.6" d="M15.2454 29.4479H84.6609L84.9329 26.1328H15.5174L15.2454 29.4479Z" fill="#EBEBEB"/>
<path opacity="0.6" d="M15.2454 31.3221H84.6609L84.9329 28.002H15.5174L15.2454 31.3221Z" fill="#EBEBEB"/>
<path d="M29.1255 109.968H31.5237L31.5237 83.22H29.1255L29.1255 109.968Z" fill="#F5F5F5"/>
<path d="M29.428 109.952H30.1082L30.1082 83.2049H29.428L29.428 109.952Z" fill="#FAFAFA"/>
<path d="M30.3902 109.952H30.6572L30.6572 83.2049H30.3902L30.3902 109.952Z" fill="#FAFAFA"/>
<path d="M39.207 111.6H21.4526C21.4526 111.007 21.6883 110.438 22.1078 110.018C22.5273 109.599 23.0963 109.363 23.6896 109.363H36.9651C37.5583 109.363 38.1273 109.599 38.5468 110.018C38.9663 110.438 39.202 111.007 39.202 111.6H39.207Z" fill="#F0F0F0"/>
<path d="M26.0119 99.8258C26.1946 99.8244 26.3694 99.7513 26.4985 99.6221C26.6277 99.493 26.7008 99.3182 26.7021 99.1355V81.6179C26.7021 81.4349 26.6294 81.2593 26.5 81.1299C26.3705 81.0004 26.195 80.9277 26.0119 80.9277V80.9277C25.9208 80.927 25.8306 80.9444 25.7462 80.9788C25.6619 81.0132 25.5852 81.0639 25.5206 81.1281C25.456 81.1922 25.4047 81.2685 25.3697 81.3526C25.3347 81.4367 25.3166 81.5268 25.3167 81.6179V99.1557C25.3232 99.3357 25.3993 99.5061 25.529 99.6311C25.6587 99.7561 25.8318 99.8259 26.0119 99.8258Z" fill="#F0F0F0"/>
<path d="M19.5784 89.5781H41.066L38.5923 74.5645H22.0521L19.5784 89.5781Z" fill="#E0E0E0"/>
<path d="M106.703 187.701C160.653 187.701 204.388 185.148 204.388 181.998C204.388 178.848 160.653 176.295 106.703 176.295C52.7534 176.295 9.01855 178.848 9.01855 181.998C9.01855 185.148 52.7534 187.701 106.703 187.701Z" fill="#F5F5F5"/>
<path d="M33.2056 74.2416L32.7031 74.2778L33.3724 83.5692L33.8749 83.533L33.2056 74.2416Z" fill="#000"/>
<path d="M34.2164 88.3296L33.7139 88.3658L33.9658 91.8633L34.4683 91.8271L34.2164 88.3296Z" fill="#000"/>
<path d="M150.892 131.072H42.9955C41.7945 131.051 40.6439 130.585 39.7658 129.766C38.8876 128.946 38.3439 127.83 38.2395 126.634L32.9394 53.0113C32.8901 52.4435 32.9603 51.8717 33.1454 51.3327C33.3305 50.7937 33.6265 50.2994 34.0143 49.8818C34.402 49.4641 34.873 49.1323 35.3968 48.9077C35.9206 48.6831 36.4857 48.5707 37.0555 48.5778H144.952C146.153 48.5992 147.302 49.064 148.181 49.8825C149.059 50.7011 149.603 51.8156 149.708 53.0113L155.009 126.634C155.058 127.202 154.988 127.774 154.802 128.313C154.617 128.852 154.322 129.347 153.934 129.765C153.546 130.183 153.075 130.515 152.551 130.74C152.028 130.966 151.462 131.079 150.892 131.072V131.072Z" fill="#000"/>
<path d="M151.306 131.072H43.4088C42.2078 131.051 41.0573 130.585 40.1791 129.766C39.3009 128.946 38.7572 127.83 38.6528 126.634L33.3527 53.0113C33.3034 52.4435 33.3736 51.8717 33.5587 51.3327C33.7438 50.7937 34.0398 50.2994 34.4276 49.8818C34.8154 49.4641 35.2863 49.1323 35.8101 48.9077C36.3339 48.6831 36.899 48.5707 37.4689 48.5778H145.366C146.566 48.5992 147.716 49.064 148.594 49.8825C149.472 50.7011 150.016 51.8156 150.122 53.0113L155.422 126.634C155.472 127.202 155.402 127.774 155.217 128.314C155.033 128.854 154.737 129.348 154.349 129.767C153.961 130.185 153.49 130.517 152.966 130.742C152.442 130.967 151.876 131.079 151.306 131.072V131.072Z" fill="#000"/>
<path opacity="0.5" d="M151.306 131.072H43.4088C42.2078 131.051 41.0573 130.585 40.1791 129.766C39.3009 128.946 38.7572 127.83 38.6528 126.634L33.3527 53.0113C33.3034 52.4435 33.3736 51.8717 33.5587 51.3327C33.7438 50.7937 34.0398 50.2994 34.4276 49.8818C34.8154 49.4641 35.2863 49.1323 35.8101 48.9077C36.3339 48.6831 36.899 48.5707 37.4689 48.5778H145.366C146.566 48.5992 147.716 49.064 148.594 49.8825C149.472 50.7011 150.016 51.8156 150.122 53.0113L155.422 126.634C155.472 127.202 155.402 127.774 155.217 128.314C155.033 128.854 154.737 129.348 154.349 129.767C153.961 130.185 153.49 130.517 152.966 130.742C152.442 130.967 151.876 131.079 151.306 131.072V131.072Z" fill="white"/>
<path d="M145.527 50.7946H37.6299H37.2671C34.5113 51.0213 35.0755 55.218 37.8566 55.218H145.935C148.721 55.218 148.681 51.0213 145.889 50.7946H145.527Z" fill="#000"/>
<path d="M40.4413 53.0113C40.4519 53.1412 40.4351 53.2719 40.3921 53.3949C40.3491 53.5179 40.2807 53.6305 40.1915 53.7254C40.1022 53.8204 39.994 53.8956 39.8739 53.9461C39.7538 53.9967 39.6244 54.0215 39.4941 54.019C39.2203 54.0151 38.9576 53.91 38.7567 53.724C38.5557 53.5379 38.4308 53.284 38.4059 53.0113C38.3954 52.8819 38.412 52.7516 38.4547 52.629C38.4975 52.5063 38.5654 52.394 38.6541 52.2991C38.7428 52.2042 38.8503 52.1289 38.9698 52.0781C39.0893 52.0272 39.2182 52.0019 39.348 52.0037C39.6227 52.0063 39.8867 52.1108 40.0887 52.297C40.2907 52.4832 40.4164 52.7377 40.4413 53.0113Z" fill="#FAFAFA"/>
<path d="M43.9025 53.0113C43.9131 53.1412 43.8963 53.2719 43.8533 53.3949C43.8103 53.5179 43.7419 53.6305 43.6526 53.7254C43.5634 53.8204 43.4552 53.8956 43.3351 53.9461C43.215 53.9967 43.0856 54.0215 42.9553 54.019C42.6815 54.0151 42.4188 53.91 42.2179 53.724C42.0169 53.5379 41.892 53.284 41.8671 53.0113C41.8565 52.8819 41.8732 52.7516 41.9159 52.629C41.9586 52.5063 42.0265 52.394 42.1153 52.2991C42.204 52.2042 42.3115 52.1289 42.431 52.0781C42.5505 52.0272 42.6794 52.0019 42.8092 52.0037C43.0839 52.0063 43.3479 52.1108 43.5499 52.297C43.7519 52.4832 43.8775 52.7377 43.9025 53.0113Z" fill="#FAFAFA"/>
<path d="M47.3586 53.0114C47.3692 53.1408 47.3525 53.271 47.3098 53.3937C47.2671 53.5163 47.1992 53.6287 47.1104 53.7236C47.0217 53.8185 46.9142 53.8937 46.7947 53.9446C46.6752 53.9955 46.5463 54.0208 46.4165 54.019C46.1423 54.0163 45.879 53.9116 45.6778 53.7253C45.4766 53.539 45.352 53.2845 45.3282 53.0114C45.3169 52.8817 45.333 52.7512 45.3754 52.6282C45.4179 52.5052 45.4857 52.3925 45.5746 52.2974C45.6635 52.2024 45.7713 52.1271 45.8912 52.0765C46.0111 52.0259 46.1403 52.0011 46.2704 52.0037C46.5442 52.0076 46.8069 52.1127 47.0079 52.2987C47.2088 52.4848 47.3337 52.7386 47.3586 53.0114V53.0114Z" fill="#FAFAFA"/>
<path d="M148.444 123.727H45.2373C44.8013 123.719 44.3836 123.55 44.0652 123.253C43.7468 122.955 43.5504 122.549 43.5143 122.115L39.1563 61.5712C39.1369 61.3634 39.1619 61.1539 39.2297 60.9566C39.2974 60.7592 39.4064 60.5785 39.5494 60.4265C39.6923 60.2745 39.866 60.1547 40.0588 60.0749C40.2516 59.9952 40.4592 59.9574 40.6677 59.964H143.899C144.335 59.97 144.752 60.1379 145.071 60.435C145.39 60.7321 145.586 61.1371 145.622 61.5712L149.985 122.115C150.004 122.325 149.978 122.537 149.908 122.736C149.838 122.936 149.727 123.118 149.581 123.271C149.435 123.423 149.258 123.543 149.061 123.622C148.865 123.7 148.655 123.736 148.444 123.727V123.727Z" fill="white"/>
<path d="M104.954 100.662L103.272 77.3254L98.1832 74.2622H84.1721L86.0765 100.662H104.954Z" fill="white"/>
<path d="M104.954 100.904H86.0766C86.0141 100.905 85.9535 100.883 85.9075 100.84C85.8615 100.798 85.8336 100.74 85.8297 100.677L83.9303 74.2774C83.9279 74.2442 83.9325 74.211 83.9438 74.1797C83.955 74.1485 83.9728 74.1199 83.9958 74.096C84.018 74.0711 84.0452 74.0511 84.0755 74.0372C84.1059 74.0234 84.1388 74.0159 84.1721 74.0154H98.1832C98.2274 74.0169 98.2706 74.029 98.3092 74.0506L103.398 77.1138C103.432 77.1335 103.461 77.1612 103.482 77.1945C103.503 77.2279 103.516 77.2659 103.519 77.3053L105.191 100.642C105.195 100.676 105.191 100.71 105.179 100.742C105.168 100.775 105.15 100.804 105.126 100.828C105.104 100.852 105.077 100.871 105.048 100.884C105.018 100.897 104.987 100.904 104.954 100.904V100.904ZM86.3134 100.4H104.687L103.035 77.4514L98.1379 74.5041H84.4341L86.3134 100.4Z" fill="#000"/>
<path d="M103.272 77.3254L98.1833 74.2622L100.053 78.323L103.272 77.3254Z" fill="#EBEBEB"/>
<path d="M100.053 78.5648C100.006 78.5645 99.9606 78.5512 99.9214 78.5262C99.8822 78.5013 99.8508 78.4657 99.8309 78.4237L97.9618 74.363C97.94 74.3153 97.9336 74.262 97.9435 74.2105C97.9535 74.1591 97.9792 74.112 98.0172 74.0758C98.0572 74.0416 98.1068 74.0208 98.1593 74.0163C98.2117 74.0118 98.2642 74.0238 98.3094 74.0506L103.398 77.1138C103.439 77.1385 103.472 77.1743 103.494 77.2171C103.515 77.26 103.524 77.308 103.519 77.3556C103.512 77.402 103.493 77.4456 103.462 77.4813C103.432 77.517 103.392 77.5433 103.348 77.5572L100.123 78.5648H100.053ZM98.7376 74.8769L100.184 78.0257L102.703 77.2549L98.7376 74.8769Z" fill="#000"/>
<path d="M92.0922 86.1523C92.0997 86.2892 92.0792 86.4262 92.032 86.5549C91.9847 86.6836 91.9117 86.8013 91.8174 86.9009C91.723 87.0004 91.6094 87.0796 91.4834 87.1337C91.3574 87.1877 91.2217 87.2155 91.0845 87.2153C90.7969 87.2101 90.5214 87.0987 90.3112 86.9024C90.1009 86.7061 89.9708 86.4388 89.9459 86.1523C89.9329 86.0139 89.9496 85.8744 89.9948 85.743C90.04 85.6116 90.1127 85.4913 90.2081 85.3902C90.3035 85.2892 90.4193 85.2096 90.5478 85.1568C90.6764 85.104 90.8147 85.0793 90.9536 85.0842C91.2416 85.0906 91.5172 85.2031 91.7273 85.4002C91.9375 85.5974 92.0674 85.8652 92.0922 86.1523Z" fill="#000"/>
<path d="M98.9944 86.1522C99.0066 86.2901 98.9894 86.4291 98.9438 86.5599C98.8983 86.6907 98.8255 86.8103 98.7302 86.9108C98.6349 87.0113 98.5194 87.0905 98.3912 87.1429C98.263 87.1954 98.1252 87.2201 97.9868 87.2152C97.6986 87.2102 97.4225 87.0989 97.2114 86.9027C97.0003 86.7065 96.8692 86.4392 96.8431 86.1522C96.8349 86.0149 96.8548 85.8773 96.9018 85.748C96.9487 85.6187 97.0216 85.5003 97.116 85.4003C97.2104 85.3002 97.3243 85.2205 97.4507 85.1662C97.577 85.1118 97.7132 85.0839 97.8508 85.0841C98.14 85.0881 98.4174 85.1998 98.6289 85.3972C98.8403 85.5947 98.9706 85.8639 98.9944 86.1522V86.1522Z" fill="#000"/>
<path d="M100.949 93.0747C100.888 93.0736 100.829 93.0498 100.785 93.0079C100.74 92.966 100.712 92.909 100.707 92.8479C100.581 91.1299 97.891 89.7344 94.712 89.7344C92.601 89.7344 90.7066 90.3641 89.7695 91.3718C89.577 91.5574 89.4263 91.7819 89.3272 92.0304C89.2282 92.2788 89.1832 92.5455 89.1952 92.8127C89.1975 92.8458 89.1933 92.879 89.1828 92.9104C89.1722 92.9419 89.1556 92.9709 89.1339 92.996C89.0899 93.0465 89.0277 93.0775 88.9609 93.0822C88.8941 93.0869 88.8282 93.0648 88.7776 93.0209C88.7271 92.977 88.6961 92.9147 88.6914 92.8479C88.6764 92.5139 88.7314 92.1805 88.8529 91.869C88.9743 91.5575 89.1596 91.2749 89.3967 91.0392C90.4043 89.9359 92.4549 89.2457 94.6968 89.2457C98.1883 89.2457 101.035 90.8125 101.176 92.8127C101.178 92.8444 101.174 92.8763 101.163 92.9064C101.153 92.9366 101.137 92.9644 101.116 92.9882C101.095 93.0121 101.069 93.0316 101.041 93.0455C101.012 93.0595 100.981 93.0677 100.949 93.0696V93.0747Z" fill="#000"/>
<path d="M88.1472 83.9959C88.0858 83.9947 88.0268 83.9714 87.981 83.9304C87.9351 83.8842 87.9094 83.8217 87.9094 83.7566C87.9094 83.6915 87.9351 83.629 87.981 83.5828L89.0541 82.429C89.1001 82.3847 89.1615 82.3599 89.2254 82.3599C89.2893 82.3599 89.3507 82.3847 89.3967 82.429C89.4192 82.4515 89.4371 82.4782 89.4493 82.5076C89.4616 82.537 89.4678 82.5685 89.4678 82.6003C89.4678 82.6322 89.4616 82.6637 89.4493 82.6931C89.4371 82.7225 89.4192 82.7492 89.3967 82.7716L88.3236 83.9254C88.3005 83.9484 88.2729 83.9665 88.2426 83.9787C88.2123 83.9908 88.1799 83.9966 88.1472 83.9959V83.9959Z" fill="#000"/>
<path d="M100.445 83.9959C100.384 83.993 100.326 83.97 100.279 83.9304L99.0449 82.7767C99.0216 82.7541 99.003 82.7271 98.9904 82.6972C98.9777 82.6674 98.9712 82.6353 98.9712 82.6028C98.9712 82.5704 98.9777 82.5383 98.9904 82.5084C99.003 82.4786 99.0216 82.4516 99.0449 82.429C99.0909 82.3847 99.1523 82.3599 99.2162 82.3599C99.2801 82.3599 99.3415 82.3847 99.3875 82.429L100.622 83.5828C100.644 83.6052 100.662 83.6319 100.674 83.6613C100.687 83.6907 100.693 83.7222 100.693 83.7541C100.693 83.7859 100.687 83.8174 100.674 83.8468C100.662 83.8762 100.644 83.9029 100.622 83.9254C100.574 83.9701 100.511 83.9953 100.445 83.9959V83.9959Z" fill="#000"/>
<path d="M82.6506 105.877H83.7893L85.4317 108.063L85.2755 105.877H86.4242L86.7063 109.826H85.5425L83.9102 107.655L84.0664 109.826H82.9177L82.6506 105.877Z" fill="#000"/>
<path d="M87.2202 107.852C87.1814 107.583 87.1999 107.31 87.2746 107.049C87.3493 106.789 87.4784 106.547 87.6535 106.34C87.845 106.152 88.0742 106.006 88.3261 105.913C88.578 105.82 88.8468 105.782 89.1146 105.801C89.6823 105.77 90.24 105.96 90.6714 106.33C91.0665 106.724 91.2956 107.254 91.3112 107.811C91.3528 108.196 91.3009 108.585 91.1601 108.945C91.0296 109.235 90.811 109.476 90.5353 109.635C90.2045 109.812 89.8322 109.898 89.4572 109.882C89.0717 109.894 88.6883 109.822 88.3337 109.67C88.023 109.521 87.761 109.287 87.578 108.995C87.3618 108.651 87.2386 108.257 87.2202 107.852V107.852ZM88.4445 107.852C88.4396 108.161 88.539 108.462 88.7267 108.708C88.8053 108.795 88.902 108.863 89.01 108.908C89.1179 108.954 89.2344 108.975 89.3514 108.97C89.4631 108.978 89.575 108.958 89.6776 108.914C89.7802 108.869 89.8705 108.8 89.9408 108.713C90.0855 108.438 90.1334 108.122 90.0769 107.816C90.079 107.52 89.9794 107.232 89.7947 107C89.714 106.915 89.6161 106.848 89.5075 106.804C89.3989 106.759 89.2822 106.739 89.165 106.743C89.0554 106.738 88.9462 106.76 88.8463 106.805C88.7465 106.851 88.6589 106.919 88.5906 107.005C88.4431 107.265 88.3914 107.568 88.4445 107.862V107.852Z" fill="#000"/>
<path d="M93.6792 105.877H95.4929C95.7919 105.867 96.0898 105.917 96.3696 106.023C96.591 106.115 96.7876 106.259 96.9439 106.441C97.1026 106.626 97.224 106.84 97.3016 107.071C97.3833 107.319 97.4341 107.576 97.4528 107.836C97.4915 108.166 97.4658 108.499 97.3772 108.819C97.3078 109.04 97.1849 109.241 97.0195 109.403C96.8815 109.549 96.7079 109.657 96.5157 109.716C96.2813 109.784 96.0392 109.821 95.7952 109.826H93.9865L93.6792 105.877ZM94.9639 106.773L95.1201 108.93H95.4174C95.6012 108.942 95.7854 108.912 95.9564 108.844C96.0692 108.779 96.1523 108.672 96.1882 108.547C96.2459 108.323 96.2596 108.09 96.2285 107.862C96.2381 107.554 96.1441 107.253 95.9615 107.005C95.8679 106.921 95.7578 106.856 95.6382 106.816C95.5185 106.776 95.3918 106.762 95.2662 106.773H94.9639Z" fill="#000"/>
<path d="M100.38 109.172H98.9945L98.8484 109.826H97.604L98.8031 105.877H100.153L101.922 109.826H100.642L100.38 109.172ZM100.063 108.32L99.5286 106.899L99.1961 108.32H100.063Z" fill="#000"/>
<path d="M101.347 105.877H105.055L105.126 106.854H103.882L104.093 109.826H102.874L102.662 106.854H101.418L101.347 105.877Z" fill="#000"/>
<path d="M107.897 109.172H106.511L106.365 109.826H105.121L106.32 105.877H107.65L109.413 109.826H108.139L107.897 109.172ZM107.579 108.32L107.04 106.899L106.703 108.32H107.579Z" fill="#000"/>
<path d="M158.943 59.4904C159.392 59.2637 159.951 58.9866 160.425 58.6994C160.898 58.4122 161.432 58.1351 161.936 57.8328C162.918 57.2232 163.916 56.6237 164.858 55.9587C166.75 54.6639 168.524 53.2039 170.158 51.5956C170.365 51.4042 170.546 51.1926 170.743 50.986L171.03 50.6787L171.171 50.5275L171.241 50.4469C171.171 50.583 171.241 50.5426 171.241 50.4117C171.286 50.2317 171.311 50.0477 171.317 49.8625C171.305 48.7912 171.182 47.7241 170.949 46.6784C170.501 44.4213 169.821 42.0937 169.151 39.8164L171.105 38.96C172.339 41.1448 173.37 43.4384 174.184 45.8118C174.641 47.0945 174.932 48.4304 175.05 49.7869C175.081 50.2087 175.068 50.6325 175.01 51.0515C174.935 51.6439 174.725 52.2111 174.395 52.709L174.31 52.8249L174.244 52.9055L174.169 53.0013L174.012 53.1927L173.7 53.5706C173.494 53.8174 173.292 54.0744 173.07 54.3112C171.347 56.2231 169.425 57.9458 167.337 59.4501C166.329 60.1957 165.261 60.9111 164.168 61.5611C163.629 61.8885 163.08 62.2009 162.52 62.5082C161.961 62.8156 161.417 63.0977 160.772 63.4L158.943 59.4904Z" fill="#FFB573"/>
<path d="M154.459 177.937C154.837 177.928 155.212 177.877 155.578 177.786C155.596 177.78 155.613 177.77 155.626 177.756C155.64 177.742 155.649 177.724 155.653 177.705C155.656 177.686 155.653 177.666 155.645 177.649C155.637 177.631 155.624 177.616 155.608 177.605C155.462 177.509 154.182 176.683 153.689 176.904C153.634 176.93 153.587 176.969 153.552 177.019C153.518 177.069 153.497 177.126 153.492 177.186C153.472 177.281 153.477 177.38 153.506 177.473C153.536 177.565 153.588 177.649 153.658 177.715C153.89 177.884 154.174 177.962 154.459 177.937V177.937ZM155.291 177.645C154.56 177.791 154.006 177.766 153.779 177.569C153.734 177.523 153.701 177.466 153.683 177.403C153.666 177.341 153.664 177.275 153.678 177.212C153.68 177.185 153.689 177.159 153.704 177.137C153.719 177.115 153.74 177.097 153.764 177.086C154.031 176.97 154.772 177.343 155.291 177.645Z" fill="#000"/>
<path d="M155.573 177.786H155.623C155.638 177.777 155.65 177.764 155.659 177.749C155.668 177.734 155.673 177.718 155.674 177.7C155.674 177.645 155.674 176.431 155.21 176.028C155.155 175.974 155.088 175.934 155.014 175.91C154.941 175.887 154.863 175.88 154.787 175.892C154.707 175.892 154.631 175.92 154.569 175.971C154.508 176.021 154.465 176.091 154.449 176.169C154.354 176.673 155.119 177.554 155.522 177.786C155.539 177.791 155.556 177.791 155.573 177.786V177.786ZM154.852 176.078C154.934 176.078 155.013 176.109 155.074 176.164C155.34 176.556 155.477 177.02 155.467 177.494C155.064 177.171 154.585 176.486 154.646 176.199C154.646 176.154 154.681 176.093 154.807 176.078H154.852Z" fill="#000"/>
<path d="M155.18 46.89C154.676 49.4091 153.668 54.4472 155.407 56.135C155.407 56.135 154.721 58.6541 150.071 58.6541C144.952 58.6541 147.628 56.135 147.628 56.135C150.419 55.47 150.343 53.3993 149.86 51.4495L155.18 46.89Z" fill="#FFB573"/>
<path d="M146.645 57.1426C145.844 57.2535 146.529 55.1727 146.852 54.9561C147.607 54.4522 157.361 53.7519 157.296 54.9561C157.255 55.4599 157.014 56.4675 156.59 56.8C156.167 57.1325 153.658 56.0947 146.645 57.1426Z" fill="#263238"/>
<path d="M148.237 56.4272C147.597 56.6439 147.658 54.548 147.875 54.2961C148.378 53.7117 156.273 51.6863 156.505 52.83C156.596 53.3338 156.641 54.3414 156.369 54.6991C156.097 55.0569 153.779 54.4674 148.237 56.4272Z" fill="#263238"/>
<path d="M145.3 42.3758C145.268 42.3772 145.237 42.371 145.208 42.3579C145.179 42.3448 145.153 42.325 145.134 42.3002C144.98 42.1019 144.782 41.9426 144.555 41.8349C144.328 41.7273 144.08 41.6744 143.829 41.6805C143.803 41.684 143.776 41.6822 143.75 41.6752C143.725 41.6681 143.701 41.656 143.68 41.6395C143.66 41.6231 143.643 41.6026 143.63 41.5793C143.617 41.5561 143.61 41.5305 143.607 41.5042C143.603 41.4523 143.619 41.4007 143.652 41.3604C143.685 41.32 143.732 41.2939 143.783 41.2875C144.101 41.2713 144.417 41.3321 144.706 41.4645C144.994 41.597 145.247 41.7973 145.441 42.0483C145.475 42.0892 145.491 42.1417 145.486 42.1945C145.482 42.2473 145.456 42.2962 145.416 42.3304C145.382 42.355 145.342 42.3706 145.3 42.3758V42.3758Z" fill="#263238"/>
<path d="M144.323 44.8395C144.094 45.6432 143.755 46.4113 143.315 47.1218C143.5 47.228 143.706 47.2925 143.918 47.3108C144.13 47.3291 144.344 47.3007 144.544 47.2276L144.323 44.8395Z" fill="#FF5652"/>
<path d="M144.57 44.2298C144.605 44.5674 144.449 44.8596 144.227 44.8798C144.005 44.8999 143.799 44.648 143.768 44.3054C143.738 43.9628 143.889 43.6756 144.106 43.6555C144.323 43.6353 144.534 43.8872 144.57 44.2298Z" fill="#263238"/>
<path d="M144.206 43.6656L143.37 43.5094C143.37 43.5094 143.849 44.1039 144.206 43.6656Z" fill="#263238"/>
<path d="M160.46 177.69H156.238L156.57 167.916H160.792L160.46 177.69Z" fill="#FFB573"/>
<path d="M155.905 177.202H160.646C160.728 177.2 160.807 177.228 160.87 177.281C160.932 177.334 160.973 177.408 160.984 177.489L161.523 181.237C161.533 181.332 161.524 181.428 161.495 181.519C161.466 181.61 161.418 181.693 161.354 181.764C161.29 181.835 161.212 181.892 161.125 181.93C161.037 181.969 160.943 181.988 160.848 181.988C159.195 181.963 158.399 181.862 156.313 181.862C155.029 181.862 153.154 181.998 151.386 181.998C149.618 181.998 149.517 180.245 150.257 180.088C153.562 179.373 154.086 178.396 155.2 177.459C155.398 177.294 155.647 177.203 155.905 177.202V177.202Z" fill="#263238"/>
<g opacity="0.2">
<path d="M160.792 167.916H156.57L156.399 172.954H160.621L160.792 167.916Z" fill="black"/>
</g>
<path d="M143.668 61.9691C141.084 60.9646 138.553 59.8296 136.085 58.5684C133.536 57.3226 131.107 55.8435 128.83 54.1499C128.222 53.6734 127.646 53.1567 127.107 52.6032C126.966 52.4521 126.825 52.311 126.689 52.1347C126.529 51.9544 126.381 51.7643 126.246 51.5654C125.874 51.0241 125.642 50.3993 125.571 49.7466C125.515 49.1278 125.599 48.5045 125.817 47.9228C125.992 47.4552 126.231 47.0143 126.528 46.6129C127.014 45.9474 127.589 45.3508 128.236 44.8394C129.377 43.9305 130.61 43.142 131.914 42.4866C132.538 42.1541 133.173 41.8569 133.818 41.5798C134.463 41.3027 135.098 41.0407 135.788 40.8039L136.68 42.7436C134.483 44.1291 132.206 45.6556 130.533 47.3585C130.159 47.7378 129.829 48.1587 129.551 48.613C129.309 49.011 129.314 49.3083 129.354 49.2831C129.394 49.2579 129.354 49.2831 129.425 49.3335L129.626 49.5501C129.702 49.6408 129.808 49.7315 129.903 49.8272C130.33 50.22 130.783 50.5836 131.259 50.9154C132.299 51.6518 133.382 52.3248 134.503 52.9307C135.637 53.5655 136.806 54.165 137.995 54.7394C140.373 55.878 142.831 56.9713 145.244 57.9688L143.668 61.9691Z" fill="#FFB573"/>
<path d="M137.939 41.3883L138.635 39.8768L135.451 38.7936C135.451 38.7936 134.443 41.7712 135.637 43.1416C136.136 43.063 136.608 42.8616 137.01 42.5556C137.411 42.2496 137.731 41.8484 137.939 41.3883Z" fill="#FFB573"/>
<path d="M138.619 36.6072L136.085 35.8716L135.45 38.7736L138.619 39.8769V36.6072Z" fill="#FFB573"/>
<path d="M171.368 40.023L171.735 36.4963L168.471 37.2822C168.471 37.2822 168.42 40.5973 170.148 41.1213L171.368 40.023Z" fill="#FFB573"/>
<path d="M170.163 34.0125L168.032 35.005L168.471 37.2571L171.735 36.4862L170.163 34.0125Z" fill="#FFB573"/>
<path d="M155.845 41.9426C156.001 46.1293 156.152 47.8977 154.263 50.2404C151.416 53.7671 146.242 53.0366 144.842 48.9809C143.582 45.3333 143.542 39.1011 147.451 37.0455C148.311 36.5885 149.273 36.3587 150.246 36.3779C151.22 36.3971 152.172 36.6647 153.013 37.1553C153.854 37.6458 154.555 38.3431 155.051 39.181C155.546 40.0188 155.82 40.9694 155.845 41.9426V41.9426Z" fill="#FFB573"/>
<path d="M154.021 50.2354C158.132 48.4569 160.833 44.6934 159.694 38.8592C158.601 33.2619 154.822 32.7077 153.26 33.8664C151.699 35.0252 147.804 33.2971 145.466 35.262C141.436 38.6728 145.245 42.3154 147.24 44.5171C148.429 46.9656 149.991 51.9735 154.021 50.2354Z" fill="#263238"/>
<path d="M152.313 37.8566C152.815 38.4999 153.493 38.9823 154.266 39.2443C155.038 39.5062 155.871 39.5362 156.66 39.3305C157.45 39.1248 158.161 38.6925 158.708 38.0868C159.254 37.4812 159.611 36.7289 159.735 35.9226C159.859 35.1163 159.744 34.2914 159.404 33.5498C159.065 32.8081 158.515 32.1822 157.824 31.7492C157.133 31.3162 156.33 31.0951 155.514 31.1132C154.699 31.1313 153.906 31.3879 153.235 31.8511C152.317 32.5255 151.704 33.5369 151.531 34.663C151.358 35.7891 151.639 36.9378 152.313 37.8566Z" fill="#000"/>
<path d="M153.381 34.2593C152.792 30.8838 155.981 28.2841 160.253 29.5386C164.525 30.7931 162.268 34.5767 161.387 37.5996C160.505 40.6225 162.812 43.5043 163.77 41.2019C164.727 38.8995 163.115 38.179 163.115 38.179C163.115 38.179 167.649 39.3529 163.437 44.4666C159.225 49.5803 155.411 43.9326 156.444 40.6024C157.281 37.9271 153.94 37.4485 153.381 34.2593Z" fill="#263238"/>
<path d="M149.114 35.5341C147.164 34.5264 143.864 33.6951 141.985 36.8591C141.098 38.3705 141.441 40.3858 141.441 40.3858L147.179 40.7637L149.114 35.5341Z" fill="#263238"/>
<path d="M140.766 39.3882C140.732 39.3856 140.7 39.37 140.678 39.3446C140.655 39.3193 140.643 39.2861 140.645 39.2522C140.645 39.1666 140.791 37.1412 142.015 35.8716C144.972 32.7983 148.439 35.3678 149.426 36.1991C149.447 36.2216 149.46 36.2511 149.461 36.282C149.461 36.3129 149.451 36.3431 149.431 36.3668C149.411 36.3904 149.383 36.4059 149.352 36.4103C149.322 36.4147 149.291 36.4077 149.265 36.3905C148.313 35.5744 144.998 33.1309 142.212 36.0429C141.053 37.247 140.912 39.2472 140.912 39.2673C140.911 39.2853 140.907 39.3029 140.899 39.3191C140.891 39.3352 140.88 39.3495 140.866 39.3609C140.852 39.3724 140.836 39.3808 140.819 39.3855C140.801 39.3902 140.783 39.3911 140.766 39.3882Z" fill="#263238"/>
<path d="M147.94 44.3357C147.917 45.1283 147.624 45.8893 147.109 46.492C146.413 47.3082 145.597 46.9051 145.431 45.9882C145.265 45.177 145.431 43.7714 146.308 43.2827C147.184 42.794 147.95 43.4187 147.94 44.3357Z" fill="#FFB573"/>
<path d="M147.033 82.686C147.033 82.686 147.305 111.983 149.844 128.306C151.9 141.491 155.694 171.982 155.694 171.982H161.452C161.452 171.982 162.012 142.544 160.949 129.505C158.314 96.5056 165.12 90.3339 159.629 82.686H147.033Z" fill="#263238"/>
<path opacity="0.1" d="M147.033 82.686C147.033 82.686 147.305 111.983 149.844 128.306C151.9 141.491 155.694 171.982 155.694 171.982H161.452C161.452 171.982 162.012 142.544 160.949 129.505C158.314 96.5056 165.12 90.3339 159.629 82.686H147.033Z" fill="white"/>
<path opacity="0.3" d="M150.061 95.9766C152.076 104.819 150.469 118.744 149.366 124.875C148.197 115.565 147.608 103.499 147.315 94.6465C148.358 92.9638 149.346 92.853 150.061 95.9766Z" fill="black"/>
<path d="M154.908 172.093H162.238L162.621 169.523L154.867 169.261L154.908 172.093Z" fill="#000"/>
<path d="M156.999 57.9387C157.689 56.5683 161.397 55.7068 163.422 55.7118L164.934 62.4428C164.934 62.4428 160.903 68.4331 159.22 67.7983C157.24 67.0678 155.522 60.8961 156.999 57.9387Z" fill="#000"/>
<path opacity="0.4" d="M156.999 57.9387C157.689 56.5683 161.397 55.7068 163.422 55.7118L164.934 62.4428C164.934 62.4428 160.903 68.4331 159.22 67.7983C157.24 67.0678 155.522 60.8961 156.999 57.9387Z" fill="black"/>
<path d="M152.726 170.445C152.735 170.431 152.739 170.414 152.739 170.398C152.739 170.381 152.735 170.364 152.726 170.35C152.717 170.33 152.702 170.315 152.683 170.305C152.664 170.295 152.642 170.291 152.621 170.294C152.409 170.33 150.545 170.622 150.293 171.156C150.266 171.204 150.252 171.259 150.252 171.314C150.252 171.37 150.266 171.425 150.293 171.473C150.336 171.553 150.398 171.621 150.474 171.671C150.549 171.721 150.636 171.752 150.726 171.76C151.336 171.821 152.238 170.974 152.691 170.461L152.726 170.445ZM150.489 171.221C150.661 170.939 151.628 170.677 152.364 170.541C151.699 171.216 151.114 171.594 150.772 171.549C150.712 171.543 150.656 171.522 150.606 171.489C150.557 171.455 150.517 171.41 150.489 171.357C150.478 171.338 150.473 171.316 150.473 171.294C150.473 171.272 150.478 171.25 150.489 171.231C150.489 171.231 150.484 171.226 150.489 171.221Z" fill="#000"/>
<path d="M157.125 168.657L153.265 170.375L151.547 166.793L149.3 162.107L149.033 161.563L152.893 159.845L153.19 160.46L155.366 164.999L157.125 168.657Z" fill="#FFB573"/>
<path opacity="0.2" d="M155.366 164.999L151.547 166.793L149.3 162.107L153.19 160.46L155.366 164.999Z" fill="black"/>
<path d="M142.509 82.686C142.509 82.686 130.181 113.358 133.521 127.767C136.544 140.811 149.895 165.513 149.895 165.513L155.069 162.923C155.069 162.923 146.812 133.103 145.92 126.624C144.177 114.028 155.376 96.2285 155.376 82.686H142.509Z" fill="#263238"/>
<path opacity="0.1" d="M142.509 82.686C142.509 82.686 130.181 113.358 133.521 127.767C136.544 140.811 149.895 165.513 149.895 165.513L155.069 162.923C155.069 162.923 146.812 133.103 145.92 126.624C144.177 114.028 155.376 96.2285 155.376 82.686H142.509Z" fill="white"/>
<path d="M152.58 169.836L156.409 167.05C156.474 166.999 156.555 166.974 156.637 166.98C156.718 166.985 156.795 167.021 156.852 167.08L159.498 169.796C159.562 169.866 159.61 169.95 159.64 170.041C159.669 170.132 159.68 170.228 159.67 170.323C159.66 170.418 159.63 170.51 159.582 170.593C159.534 170.675 159.469 170.747 159.392 170.803C158.036 171.75 157.336 172.143 155.653 173.368C154.616 174.123 152.55 175.791 151.119 176.834C149.688 177.877 148.6 176.516 149.104 175.957C151.361 173.438 151.834 171.876 152.187 170.461C152.242 170.213 152.381 169.992 152.58 169.836V169.836Z" fill="#263238"/>
<path d="M149.562 166.606L156.228 163.558L155.376 160.843L148.237 164.097L149.562 166.606Z" fill="#000"/>
<path d="M145.779 57.6162C145.229 56.1853 140.413 54.5933 137.995 54.0895L136.932 62.0094C136.932 62.0094 140.882 67.6824 142.61 67.2138C144.655 66.6596 146.968 60.6844 145.779 57.6162Z" fill="#000"/>
<path opacity="0.4" d="M145.779 57.6162C145.229 56.1853 140.413 54.5933 137.995 54.0895L136.932 62.0094C136.932 62.0094 140.882 67.6824 142.61 67.2138C144.655 66.6596 146.968 60.6844 145.779 57.6162Z" fill="black"/>
<path d="M140.494 57.2182C140.494 57.2182 138.478 57.9236 142.509 82.686H159.639C159.351 75.7132 159.341 71.4107 162.661 57.0923C160.261 56.597 157.828 56.2771 155.381 56.135C152.792 55.9484 150.192 55.9484 147.602 56.135C144.282 56.4272 140.494 57.2182 140.494 57.2182Z" fill="#000"/>
<path opacity="0.4" d="M140.494 57.2182C140.494 57.2182 138.478 57.9236 142.509 82.686H159.639C159.351 75.7132 159.341 71.4107 162.661 57.0923C160.261 56.597 157.828 56.2771 155.381 56.135C152.792 55.9484 150.192 55.9484 147.602 56.135C144.282 56.4272 140.494 57.2182 140.494 57.2182Z" fill="black"/>
<path d="M159.906 81.6834L160.676 83.1949C160.737 83.3158 160.596 83.4367 160.399 83.4367H142.423C142.267 83.4367 142.141 83.3611 142.131 83.2603L141.975 81.7489C141.975 81.6431 142.101 81.5524 142.267 81.5524H159.603C159.661 81.5433 159.72 81.5508 159.773 81.574C159.827 81.5972 159.873 81.6351 159.906 81.6834Z" fill="#000"/>
<path opacity="0.3" d="M159.906 81.6834L160.676 83.1949C160.737 83.3158 160.596 83.4367 160.399 83.4367H142.423C142.267 83.4367 142.141 83.3611 142.131 83.2603L141.975 81.7489C141.975 81.6431 142.101 81.5524 142.267 81.5524H159.603C159.661 81.5433 159.72 81.5508 159.773 81.574C159.827 81.5972 159.873 81.6351 159.906 81.6834Z" fill="white"/>
<path d="M157.588 83.6332H158.051C158.147 83.6332 158.218 83.5828 158.208 83.5274L157.991 81.5121C157.991 81.4517 157.905 81.4063 157.815 81.4063H157.346C157.255 81.4063 157.185 81.4517 157.19 81.5121L157.407 83.5274C157.402 83.5727 157.482 83.6332 157.588 83.6332Z" fill="#263238"/>
<path d="M146.307 83.6332H146.771C146.862 83.6332 146.932 83.5828 146.927 83.5274L146.711 81.5121C146.711 81.4517 146.625 81.4063 146.529 81.4063H146.066C145.97 81.4063 145.904 81.4517 145.909 81.5121L146.126 83.5274C146.131 83.5727 146.212 83.6332 146.307 83.6332Z" fill="#263238"/>
</svg>
