<svg width="26" height="22" viewBox="0 0 26 22" fill="none" xmlns="http://www.w3.org/2000/svg">
<path d="M4.66667 0C5.4349 0 6.05556 0.615742 6.05556 1.375V5.5H3.27778V1.375C3.27778 0.615742 3.89974 0 4.66667 0ZM13 0C13.7682 0 14.3889 0.615742 14.3889 1.375V5.5H11.6111V1.375C11.6111 0.615742 12.2318 0 13 0ZM15.7778 6.875C16.546 6.875 17.1667 7.48945 17.1667 8.25C17.1667 8.34883 17.1536 8.44766 17.1363 8.54219C13.9462 9.41445 11.6111 12.3621 11.6111 15.8125C11.6111 16.3023 11.6589 16.7793 11.7457 17.2434C11.2682 17.4625 10.7561 17.6301 10.2222 17.7375V22H7.44444V17.7375C4.27474 17.0629 1.88889 14.3258 1.88889 11V9.625C1.12196 9.625 0.5 9.01055 0.5 8.25C0.5 7.48945 1.12196 6.875 1.88889 6.875H15.7778ZM13 15.8125C13 12.3965 15.7995 9.625 19.25 9.625C22.7005 9.625 25.5 12.3965 25.5 15.8125C25.5 19.2285 22.7005 22 19.25 22C15.7995 22 13 19.2285 13 15.8125ZM20.6736 12.3062L16.5069 15.4C16.329 15.5332 16.2161 15.7652 16.3247 15.9758C16.3941 16.1863 16.5938 16.3281 16.8194 16.3281H18.3646L17.0582 18.657C16.941 18.8676 16.9844 19.134 17.171 19.293C17.3576 19.4562 17.6311 19.4262 17.8264 19.3188L21.9931 16.225C22.171 16.0918 22.2448 15.8598 22.1753 15.6492C22.1059 15.4387 21.9062 15.2969 21.6806 15.2969H20.1354L21.4418 12.968C21.559 12.7574 21.5156 12.491 21.329 12.2934C21.1424 12.1687 20.8689 12.1602 20.6736 12.3062Z" fill="#000"/>
</svg>
