<svg width="9" height="8" viewBox="0 0 9 8" fill="none" xmlns="http://www.w3.org/2000/svg">
<path d="M2.12769 2.28591H3.10328C3.44658 2.28591 3.72394 2.54123 3.72394 2.85727C3.72394 3.17331 3.44658 3.42864 3.10328 3.42864H0.620656C0.277356 3.42864 0 3.17331 0 2.85727V0.571811C0 0.255775 0.277356 0.000446406 0.620656 0.000446406C0.963957 0.000446406 1.24131 0.255775 1.24131 0.571811V1.48599L1.58267 1.17174C3.27978 -0.390581 6.03006 -0.390581 7.72717 1.17174C9.42428 2.73407 9.42428 5.26593 7.72717 6.82826C6.03006 8.39058 3.27978 8.39058 1.58267 6.82826C1.34023 6.60507 1.34023 6.24261 1.58267 6.01942C1.82512 5.79623 2.21885 5.79623 2.46129 6.01942C3.67351 7.13536 5.63827 7.13536 6.85049 6.01942C8.06271 4.90347 8.06271 3.09474 6.85049 1.9788C5.63827 0.86285 3.67351 0.86285 2.46129 1.9788L2.12769 2.28591Z" fill="#000"/>
</svg>
