<svg width="15" height="15" viewBox="0 0 15 15" fill="none" xmlns="http://www.w3.org/2000/svg">
<path d="M7.49971 4.67919C5.94645 4.67919 4.71368 5.9362 4.71368 7.46052C4.71368 8.98484 5.92067 10.2945 7.49971 10.2945C9.07874 10.2945 10.2857 9.03748 10.2857 7.51316C10.2857 5.98884 9.05238 4.67919 7.49971 4.67919ZM14.9203 10.1746L13.0688 7.48684L14.9188 4.82513C15.1043 4.55826 14.9512 4.18932 14.631 4.13141L11.4378 3.55525L10.8606 0.367404C10.8028 0.0477417 10.4332 -0.105217 10.1657 0.0800882L7.49971 1.95314L4.80743 0.106117C4.54011 -0.0790704 4.17054 0.0737417 4.11253 0.393433L3.56236 3.58245L0.367957 4.15861C0.0478423 4.21417 -0.105345 4.5856 0.0801555 4.82542L1.9303 7.51316L0.0802727 10.1749C-0.105228 10.4417 0.0479009 10.8107 0.368074 10.8686L3.56131 11.4447L4.13843 14.6326C4.19629 14.9523 4.56586 15.1052 4.83333 14.9199L7.49971 13.0729L10.1659 14.9198C10.4333 15.105 10.8031 14.9522 10.8608 14.6325L11.4379 11.4447L14.6312 10.8685C14.9525 10.8121 15.1049 10.4407 14.9203 10.1746ZM7.49971 11.2304C5.42879 11.2304 3.77622 9.55426 3.77622 7.51316C3.77622 5.44574 5.45516 3.79595 7.49971 3.79595C9.54425 3.79595 11.2232 5.47177 11.2232 7.51316C11.2232 9.58088 9.57091 11.2304 7.49971 11.2304Z" fill="#000"/>
</svg>
