<svg width="17" height="22" viewBox="0 0 17 22" fill="none" xmlns="http://www.w3.org/2000/svg">
<path d="M9.83333 2.75H13.8333C14.2015 2.75 14.5 2.44217 14.5 2.0625C14.5 1.68266 14.2 1.375 13.8333 1.375H12.8333V1.03125C12.8333 0.461484 12.3875 0 11.8333 0C11.2792 0 10.8333 0.461484 10.8333 1.03125V1.375H9.83333C9.46517 1.375 9.16667 1.68274 9.16667 2.0625C9.16667 2.44234 9.46667 2.75 9.83333 2.75ZM9.83333 5.5H13.8333C14.2015 5.5 14.5 5.19217 14.5 4.8125C14.5 4.43437 14.2 4.125 13.8333 4.125H9.83333C9.46517 4.125 9.16667 4.43274 9.16667 4.8125C9.16667 5.19063 9.46667 5.5 9.83333 5.5ZM16.5 8.9375V7.5625C16.5 7.18437 16.2 6.875 15.8333 6.875H1.16667C0.7985 6.875 0.5 7.18437 0.5 7.5625V8.9375C0.5 9.31563 0.7985 9.625 1.16667 9.625V19.25C0.7985 19.25 0.5 19.5594 0.5 19.9375V21.3125C0.5 21.6906 0.7985 22 1.16667 22H15.8333C16.2015 22 16.5 21.6922 16.5 21.3125V19.9375C16.5 19.5577 16.2015 19.25 15.8333 19.25V9.625C16.2 9.625 16.5 9.31563 16.5 8.9375ZM11.8 14.8027L7.13333 19.0996C7.025 19.1984 6.8875 19.25 6.7125 19.25C6.59288 19.25 6.47213 19.2118 6.3695 19.1348C6.14962 18.9698 6.06871 18.6695 6.17583 18.4117L7.61667 15.125H5.54583C5.30317 15.125 5.08542 14.9699 5 14.7349C4.91454 14.5005 4.97835 14.2356 5.16188 14.0706L9.82854 9.77419C10.0325 9.58912 10.3331 9.57447 10.5556 9.7407C10.7755 9.90579 10.8564 10.2061 10.7493 10.4639L9.38333 13.75H11.415C11.6577 13.75 11.8754 13.9051 11.9608 14.1401C12.05 14.373 11.9833 14.6395 11.8 14.8027ZM3.16667 2.75H7.16667C7.53483 2.75 7.83333 2.44217 7.83333 2.0625C7.83333 1.68266 7.53333 1.375 7.16667 1.375H6.16667V1.03125C6.16667 0.461484 5.72083 0 5.16667 0C4.6125 0 4.16667 0.461484 4.16667 1.03125V1.375H3.16667C2.79833 1.375 2.5 1.68266 2.5 2.0625C2.5 2.44234 2.79833 2.75 3.16667 2.75ZM3.16667 5.5H7.16667C7.53483 5.5 7.83333 5.19217 7.83333 4.8125C7.83333 4.43437 7.53333 4.125 7.16667 4.125H3.16667C2.79833 4.125 2.5 4.43437 2.5 4.8125C2.5 5.19063 2.79833 5.5 3.16667 5.5Z" fill="#000"/>
</svg>
