<svg width="21" height="17" viewBox="0 0 21 17" fill="none" xmlns="http://www.w3.org/2000/svg">
<path d="M16.8 5.3125C18.2497 5.3125 19.425 4.12316 19.425 2.65625C19.425 1.18934 18.2503 0 16.8 0C15.3503 0 14.175 1.18934 14.175 2.65625C14.175 4.12316 15.3497 5.3125 16.8 5.3125ZM4.2 5.3125C5.64966 5.3125 6.825 4.12316 6.825 2.65625C6.825 1.18934 5.65031 0 4.2 0C2.75034 0 1.575 1.18934 1.575 2.65625C1.575 4.12316 2.75034 5.3125 4.2 5.3125ZM10.4967 10.625C12.3805 10.625 13.8797 9.07906 13.8797 7.17188C13.8797 5.26469 12.3526 3.71875 10.4967 3.71875C8.61295 3.71875 7.11375 5.26469 7.11375 7.17188C7.08422 9.07773 8.61328 10.625 10.4967 10.625ZM12.075 13.2812C12.075 12.7271 12.1865 12.2035 12.3578 11.7088C12.2817 11.7041 12.2128 11.6875 12.1373 11.6875H8.86266C6.28687 11.6875 4.2 13.6697 4.2 16.1135C4.2 16.6049 4.61672 17 5.13187 17H13.8633C12.7805 16.1234 12.075 14.792 12.075 13.2812ZM6.03422 7.17188C6.03422 6.99095 6.06645 6.81893 6.08701 6.64361C5.72906 6.44473 5.33531 6.375 4.91859 6.375H2.89012C1.29413 6.375 0 7.76289 0 9.47285C0 9.81484 0.258792 10.0938 0.578156 10.0938H7.12425C6.45422 9.30352 6.03422 8.29082 6.03422 7.17188ZM18.1092 6.375H16.0801C15.6601 6.375 15.2637 6.47584 14.9034 6.64859C14.9231 6.82324 14.9559 6.99258 14.9559 7.17188C14.9559 7.88475 14.7714 8.54582 14.4752 9.14215C15.1659 8.7457 15.9502 8.5 16.8 8.5C18.1939 8.5 19.4339 9.12223 20.2978 10.0938H20.4211C20.7408 10.0938 21 9.81484 21 9.47285C21 7.76289 19.7072 6.375 18.1092 6.375ZM20.2814 12.1756C20.1165 11.644 19.8355 11.1589 19.4693 10.7575C19.4144 10.6957 19.3227 10.6803 19.2495 10.7235L18.6205 11.0911C18.3548 10.8624 18.0495 10.6833 17.7198 10.5658V9.79824C17.7198 9.71477 17.6587 9.64066 17.5793 9.62515C17.0359 9.50154 16.4801 9.50466 15.961 9.62515C15.9108 9.66875 15.8517 9.74512 15.8517 9.79824V10.5367C15.522 10.6541 15.2165 10.8333 14.951 11.062L14.319 10.6944C14.2489 10.6511 14.1572 10.6666 14.0993 10.7284C13.7328 11.1301 13.4519 11.6152 13.2901 12.1465C13.2657 12.2299 13.2993 12.3164 13.3696 12.3565L13.9986 12.7274C13.9376 13.0734 13.9376 13.4316 13.9986 13.7779L13.3696 14.1488C13.2962 14.189 13.2657 14.2755 13.2901 14.3589C13.452 14.8905 13.7328 15.3723 14.0993 15.777C14.1572 15.8389 14.2459 15.8543 14.319 15.8111L14.951 15.4435C15.2166 15.6722 15.522 15.8512 15.8517 15.9688V16.7072C15.8517 16.7907 15.9098 16.8648 15.9891 16.8802C16.5358 17.0039 17.0884 17.0007 17.6074 16.8802C17.6869 16.8648 17.7479 16.7907 17.7479 16.7072V15.9688C18.0777 15.8514 18.3832 15.6722 18.6486 15.4435L19.2776 15.8111C19.3479 15.8543 19.4425 15.8389 19.4974 15.777C19.864 15.3753 20.1448 14.8905 20.3096 14.3589C20.334 14.2755 20.3005 14.189 20.2271 14.1488L19.5981 13.7779C19.6622 13.432 19.6622 13.0734 19.5981 12.7274L20.2271 12.3565C20.3011 12.3449 20.3339 12.2586 20.2814 12.1756ZM16.8 14.3438C16.2202 14.3438 15.75 13.8679 15.75 13.2812C15.75 12.6946 16.2202 12.2188 16.8 12.2188C17.3798 12.2188 17.85 12.6946 17.85 13.2812C17.85 13.8689 17.3808 14.3438 16.8 14.3438Z" fill="#000"/>
</svg>
