<svg width="15" height="15" viewBox="0 0 15 15" fill="none" xmlns="http://www.w3.org/2000/svg">
<path d="M14.5561 2.56169C15.1417 1.97603 15.1417 1.02491 14.5561 0.439247C13.9704 -0.146416 13.0193 -0.146416 12.4336 0.439247L7.5 5.37756L2.56169 0.443932C1.97603 -0.141731 1.02491 -0.141731 0.439247 0.443932C-0.146416 1.0296 -0.146416 1.98071 0.439247 2.56637L5.37756 7.5L0.443932 12.4383C-0.14173 13.024 -0.14173 13.9751 0.443932 14.5608C1.0296 15.1464 1.98071 15.1464 2.56638 14.5608L7.5 9.62244L12.4383 14.5561C13.024 15.1417 13.9751 15.1417 14.5608 14.5561C15.1464 13.9704 15.1464 13.0193 14.5608 12.4336L9.62244 7.5L14.5561 2.56169Z" fill="#000"/>
</svg>
